<svg xmlns="http://www.w3.org/2000/svg" xmlns:xlink="http://www.w3.org/1999/xlink" width="2000" zoomAndPan="magnify" viewBox="0 0 1500 749.999995" height="1000" preserveAspectRatio="xMidYMid meet" version="1.0"><defs><clipPath id="c91c0bdfcc"><path d="M 441.269531 254 L 569 254 L 569 534 L 441.269531 534 Z M 441.269531 254 " clip-rule="nonzero"/></clipPath><clipPath id="a31944788a"><path d="M 686 165.28125 L 782 165.28125 L 782 473 L 686 473 Z M 686 165.28125 " clip-rule="nonzero"/></clipPath><clipPath id="fd49a2e7bd"><path d="M 931 238 L 1058.519531 238 L 1058.519531 584.53125 L 931 584.53125 Z M 931 238 " clip-rule="nonzero"/></clipPath></defs><g clip-path="url(#c91c0bdfcc)"><path fill="#ffffff" d="M 546.738281 264.019531 C 533.054688 254.257812 516.066406 251.773438 500.136719 257.21875 L 461.546875 270.390625 C 459.359375 271.144531 457.886719 273.1875 457.886719 275.492188 L 457.886719 307.949219 C 457.886719 309.679688 458.738281 311.320312 460.15625 312.34375 C 461.570312 313.355469 463.410156 313.621094 465.0625 313.058594 L 508.835938 298.121094 C 512.972656 296.703125 517.382812 297.355469 520.925781 299.886719 C 524.484375 302.417969 526.519531 306.367188 526.519531 310.730469 L 526.519531 349.667969 L 486.320312 363.394531 C 459.429688 372.5625 441.359375 397.773438 441.359375 426.121094 L 441.359375 470.765625 C 441.359375 491.222656 450.933594 509.777344 467.617188 521.667969 C 478.5 529.421875 491.070312 533.410156 503.890625 533.410156 C 510.738281 533.410156 517.648438 532.269531 524.40625 529.964844 C 550.648438 521.007812 568.277344 496.410156 568.277344 468.75 L 568.277344 305.785156 C 568.277344 289.007812 560.425781 273.777344 546.730469 264.019531 Z M 511.890625 490.433594 C 505.136719 492.75 497.925781 491.703125 492.113281 487.554688 C 486.328125 483.425781 483 477.007812 483 469.925781 L 483 431.160156 C 483 418.089844 491.34375 406.414062 503.742188 402.097656 L 526.378906 394.230469 L 526.589844 469.871094 C 526.613281 479.15625 520.691406 487.414062 511.882812 490.425781 L 511.890625 490.425781 Z M 511.890625 490.433594 " fill-opacity="1" fill-rule="nonzero"/></g><path fill="#ffffff" d="M 646.847656 210.609375 C 645.421875 209.59375 643.589844 209.332031 641.9375 209.890625 L 609.238281 220.859375 C 607.066406 221.613281 605.601562 223.65625 605.601562 225.960938 L 605.601562 494.671875 C 605.601562 496.402344 606.445312 498.046875 607.863281 499.058594 C 608.789062 499.71875 609.902344 500.0625 611.015625 500.0625 C 611.601562 500.0625 612.183594 499.976562 612.746094 499.773438 L 645.453125 488.714844 C 647.648438 487.972656 649.121094 485.917969 649.121094 483.597656 L 649.121094 215 C 649.121094 213.265625 648.273438 211.621094 646.847656 210.609375 L 646.855469 210.609375 Z M 646.847656 210.609375 " fill-opacity="1" fill-rule="nonzero"/><g clip-path="url(#a31944788a)"><path fill="#ffffff" d="M 721.335938 183.273438 C 700.601562 190.417969 686.671875 209.921875 686.671875 231.792969 L 686.671875 466.902344 C 686.671875 468.632812 687.515625 470.277344 688.921875 471.289062 C 689.859375 471.953125 690.964844 472.300781 692.078125 472.300781 C 692.664062 472.300781 693.246094 472.207031 693.808594 472.011719 L 726.515625 460.953125 C 728.710938 460.214844 730.183594 458.15625 730.183594 455.835938 L 730.183594 233.742188 C 730.183594 228.039062 733.8125 222.976562 739.21875 221.136719 L 776.980469 208.246094 C 779.167969 207.492188 780.640625 205.453125 780.640625 203.144531 L 781.414062 170.6875 C 781.414062 168.949219 780.5625 167.308594 779.144531 166.292969 C 777.722656 165.28125 775.890625 165.015625 774.246094 165.585938 L 721.328125 183.273438 Z M 721.335938 183.273438 " fill-opacity="1" fill-rule="nonzero"/></g><path fill="#ffffff" d="M 767.445312 470.167969 L 767.445312 315.722656 C 767.445312 313.503906 768.863281 311.539062 770.960938 310.824219 L 802.070312 300.222656 C 802.964844 299.917969 803.953125 299.808594 804.890625 299.996094 C 807.421875 300.511719 809.074219 302.707031 809.074219 305.074219 L 809.074219 470.058594 C 809.074219 482.054688 818.824219 491.773438 830.851562 491.773438 C 842.878906 491.773438 852.636719 482.054688 852.636719 470.058594 L 852.636719 286.644531 C 852.636719 284.425781 854.054688 282.464844 856.160156 281.738281 L 887.269531 271.136719 C 888.171875 270.832031 889.144531 270.726562 890.089844 270.910156 C 892.621094 271.425781 894.269531 273.621094 894.269531 276 L 894.269531 470.160156 C 894.269531 505.085938 865.878906 533.402344 830.859375 533.402344 C 795.839844 533.402344 767.4375 505.085938 767.4375 470.160156 Z M 767.445312 470.167969 " fill-opacity="1" fill-rule="nonzero"/><g clip-path="url(#fd49a2e7bd)"><path fill="#ffffff" d="M 995.226562 238.171875 C 960.199219 238.171875 931.816406 266.480469 931.816406 301.414062 L 931.816406 579.558594 C 931.816406 581.210938 932.617188 582.785156 933.972656 583.742188 C 934.859375 584.371094 935.917969 584.699219 936.988281 584.699219 C 937.539062 584.699219 938.09375 584.605469 938.636719 584.433594 L 969.855469 573.875 C 971.953125 573.164062 973.371094 571.203125 973.371094 568.996094 L 973.371094 473.390625 C 980.179688 475.886719 987.546875 477.253906 995.21875 477.253906 C 1030.246094 477.253906 1058.632812 448.941406 1058.632812 414.015625 L 1058.632812 301.414062 C 1058.632812 266.488281 1030.238281 238.171875 995.21875 238.171875 Z M 1017.003906 344.722656 L 1017.003906 413.890625 C 1017.003906 425.886719 1007.253906 435.605469 995.226562 435.605469 C 983.199219 435.605469 973.441406 425.878906 973.441406 413.890625 L 973.441406 301.515625 C 973.441406 289.519531 983.183594 279.800781 995.226562 279.800781 C 1007.269531 279.800781 1017.003906 289.527344 1017.003906 301.515625 Z M 1017.003906 344.722656 " fill-opacity="1" fill-rule="nonzero"/></g></svg>