<svg xmlns="http://www.w3.org/2000/svg" xmlns:xlink="http://www.w3.org/1999/xlink" width="2000" zoomAndPan="magnify" viewBox="0 0 1500 749.999995" height="1000" preserveAspectRatio="xMidYMid meet" version="1.0"><defs><clipPath id="300c874c0d"><path d="M 90.441406 318 L 183 318 L 183 438 L 90.441406 438 Z M 90.441406 318 " clip-rule="nonzero"/></clipPath><clipPath id="276cf2636f"><path d="M 1249 300 L 1404 300 L 1404 485.585938 L 1249 485.585938 Z M 1249 300 " clip-rule="nonzero"/></clipPath><clipPath id="15562b3251"><path d="M 746 264.335938 L 801 264.335938 L 801 314 L 746 314 Z M 746 264.335938 " clip-rule="nonzero"/></clipPath></defs><path fill="#ffffff" d="M 127.492188 480.675781 L 188.433594 480.675781 L 284.71875 394.730469 C 289.53125 390.433594 292.300781 384.308594 292.300781 377.945312 C 292.300781 371.585938 289.53125 365.460938 284.71875 361.160156 L 188.433594 275.214844 L 127.492188 275.214844 C 125.140625 275.214844 123.710938 276.71875 123.164062 278.117188 C 122.613281 279.515625 122.636719 281.554688 124.347656 283.101562 L 227.488281 375.171875 C 228.28125 375.882812 228.742188 376.914062 228.742188 377.96875 C 228.742188 379.019531 228.28125 380.050781 227.488281 380.761719 L 124.347656 472.832031 C 122.613281 474.378906 122.589844 476.421875 123.164062 477.816406 C 123.710938 479.214844 125.140625 480.71875 127.492188 480.71875 Z M 127.492188 480.675781 " fill-opacity="1" fill-rule="nonzero"/><g clip-path="url(#300c874c0d)"><path fill="#ffffff" d="M 146.0625 318.265625 L 98.042969 361.117188 C 93.230469 365.417969 90.460938 371.542969 90.460938 377.902344 C 90.460938 384.265625 93.230469 390.390625 98.042969 394.6875 L 146.0625 437.542969 L 182.503906 405.003906 L 155.25 380.675781 C 154.457031 379.96875 153.996094 378.9375 153.996094 377.882812 C 153.996094 376.828125 154.457031 375.796875 155.25 375.089844 L 182.503906 350.761719 L 146.0625 318.222656 Z M 146.0625 318.265625 " fill-opacity="1" fill-rule="nonzero"/></g><path fill="#ffffff" d="M 255.292969 275.164062 L 206.238281 275.164062 L 236.742188 302.394531 L 258.414062 283.050781 C 260.148438 281.503906 260.171875 279.460938 259.621094 278.066406 C 259.074219 276.667969 257.644531 275.164062 255.292969 275.164062 Z M 255.292969 275.164062 " fill-opacity="1" fill-rule="nonzero"/><path fill="#ffffff" d="M 236.742188 453.421875 L 206.238281 480.652344 L 255.292969 480.652344 C 257.644531 480.652344 259.074219 479.148438 259.621094 477.75 C 260.171875 476.351562 260.148438 474.3125 258.414062 472.765625 Z M 236.742188 453.421875 " fill-opacity="1" fill-rule="nonzero"/><g clip-path="url(#276cf2636f)"><path fill="#ffffff" d="M 1359.464844 433.496094 C 1360.722656 431.109375 1388.523438 346.132812 1403.332031 300.65625 L 1354.960938 300.65625 C 1339.378906 364.613281 1328.324219 405.75 1328.214844 406.15625 L 1327.5625 408.585938 L 1326.789062 406.199219 C 1326.65625 405.792969 1313.40625 364.65625 1298 300.675781 L 1249.628906 300.675781 L 1288.28125 414.238281 C 1291.335938 422.382812 1298.242188 432.121094 1313.820312 432.121094 C 1326.066406 432.121094 1334.148438 426.125 1339.183594 421.609375 L 1341.273438 419.738281 L 1340.390625 422.382812 C 1340.300781 422.621094 1331.800781 447.140625 1303.402344 447.140625 C 1289.867188 447.140625 1275.472656 441.703125 1271.539062 440.09375 L 1271.539062 479.273438 C 1273.691406 480.367188 1285.050781 485.65625 1303.402344 485.65625 C 1312.191406 485.65625 1338.917969 485.65625 1359.449219 433.558594 Z M 1359.464844 433.496094 " fill-opacity="1" fill-rule="nonzero"/></g><path fill="#ffffff" d="M 942.351562 411.78125 C 942.351562 377.503906 905.757812 368.324219 879.035156 361.640625 C 861.890625 357.367188 848.375 353.96875 848.375 345.609375 C 848.375 340.496094 852.464844 334.390625 871.890625 334.390625 C 902.15625 334.390625 928.527344 353.734375 934.441406 358.398438 L 934.441406 314.425781 C 917.40625 303.292969 897.386719 297.402344 876.507812 297.402344 C 850.902344 297.402344 812.792969 309.828125 812.792969 344.0625 C 812.792969 375.957031 845.585938 383.304688 871.9375 389.214844 C 888.703125 392.976562 901.957031 395.941406 901.957031 404.476562 C 901.957031 412.339844 894.242188 416.316406 879.011719 416.316406 C 844.640625 416.316406 821.125 395.253906 815.496094 389.667969 L 815.496094 439.722656 C 821.894531 445.09375 849.652344 455.003906 875.738281 455.003906 C 916.878906 455.003906 942.351562 432.566406 942.351562 411.78125 Z M 942.351562 411.78125 " fill-opacity="1" fill-rule="nonzero"/><path fill="#ffffff" d="M 1163.199219 455.003906 C 1184.515625 455.003906 1200.539062 445.160156 1208.277344 427.300781 L 1209.996094 423.367188 L 1208.339844 448.535156 L 1208.339844 451.777344 L 1251.835938 451.777344 L 1251.265625 368.175781 C 1251.265625 359.363281 1250.011719 342.34375 1241.617188 327.277344 C 1230.585938 307.484375 1211.183594 297.445312 1183.878906 297.445312 C 1150.699219 297.445312 1128.433594 311.910156 1124.804688 314.445312 L 1124.804688 358.160156 C 1130.054688 352.960938 1150.628906 334.414062 1177.132812 334.414062 C 1186.84375 334.414062 1194.496094 337.121094 1199.859375 342.492188 C 1208.128906 350.746094 1207.996094 362.203125 1207.96875 362.695312 L 1207.96875 363.554688 L 1207.09375 363.40625 C 1201.53125 362.394531 1189.777344 360.71875 1173.265625 360.71875 C 1130.542969 360.71875 1111.09375 387.28125 1111.09375 411.976562 C 1111.09375 441.546875 1138.128906 455.023438 1163.226562 455.023438 Z M 1159.792969 388.65625 C 1171.132812 380.125 1191.394531 379.179688 1204.691406 382.617188 L 1205.285156 382.769531 L 1205.285156 383.347656 C 1203.355469 418.273438 1184.25 422.054688 1176.140625 422.054688 C 1161.613281 422.054688 1151.859375 414.707031 1151.859375 403.746094 C 1151.859375 397.707031 1154.542969 392.613281 1159.792969 388.65625 Z M 1159.792969 388.65625 " fill-opacity="1" fill-rule="nonzero"/><path fill="#ffffff" d="M 547.605469 455.003906 C 568.925781 455.003906 584.945312 445.160156 592.683594 427.300781 L 594.398438 423.367188 L 592.726562 448.535156 L 592.726562 451.777344 L 636.21875 451.777344 L 635.648438 368.175781 C 635.648438 359.363281 634.394531 342.363281 626 327.277344 C 614.96875 307.484375 595.5625 297.445312 568.265625 297.445312 C 535.078125 297.445312 512.816406 311.910156 509.191406 314.445312 L 509.191406 358.160156 C 514.441406 352.960938 535.015625 334.414062 561.519531 334.414062 C 571.234375 334.414062 578.878906 337.121094 584.242188 342.492188 C 592.507812 350.746094 592.375 362.203125 592.355469 362.695312 L 592.355469 363.554688 L 591.472656 363.40625 C 585.914062 362.394531 574.15625 360.71875 557.652344 360.71875 C 514.925781 360.71875 495.476562 387.28125 495.476562 411.976562 C 495.476562 441.546875 522.507812 455.023438 547.605469 455.023438 Z M 544.199219 388.65625 C 555.539062 380.125 575.804688 379.179688 589.101562 382.617188 L 589.695312 382.769531 L 589.695312 383.347656 C 587.761719 418.273438 568.660156 422.054688 560.550781 422.054688 C 546.023438 422.054688 536.265625 414.707031 536.265625 403.746094 C 536.265625 397.707031 538.949219 392.613281 544.199219 388.65625 Z M 544.199219 388.65625 " fill-opacity="1" fill-rule="nonzero"/><path fill="#ffffff" d="M 696.503906 455.007812 C 711.84375 455.007812 725.074219 450.449219 731.074219 443.101562 L 731.074219 405.363281 C 728.679688 408.5 723.292969 414.214844 716.195312 414.214844 C 706.722656 414.214844 702.128906 407.789062 702.128906 394.59375 L 702.128906 328.484375 L 729.140625 328.484375 L 729.140625 297.429688 L 702.128906 297.429688 L 702.128906 275.402344 L 671.382812 275.402344 C 671.230469 282.558594 668.527344 302.007812 644.175781 302.394531 L 644.175781 328.484375 L 657.496094 328.484375 L 657.496094 408.949219 C 657.496094 438.652344 671.339844 455.027344 696.503906 455.027344 Z M 696.503906 455.007812 " fill-opacity="1" fill-rule="nonzero"/><path fill="#ffffff" d="M 487.46875 411.78125 C 487.46875 377.503906 450.875 368.324219 424.152344 361.640625 C 407.007812 357.367188 393.492188 353.96875 393.492188 345.609375 C 393.492188 340.496094 397.582031 334.390625 417.007812 334.390625 C 447.273438 334.390625 473.644531 353.734375 479.558594 358.398438 L 479.558594 314.425781 C 462.523438 303.292969 442.503906 297.402344 421.625 297.402344 C 396.019531 297.402344 357.910156 309.828125 357.910156 344.0625 C 357.910156 375.957031 390.703125 383.304688 417.054688 389.214844 C 433.824219 392.976562 447.074219 395.941406 447.074219 404.476562 C 447.074219 412.339844 439.359375 416.316406 424.128906 416.316406 C 389.757812 416.316406 366.242188 395.253906 360.617188 389.667969 L 360.617188 439.722656 C 367.011719 445.09375 394.769531 455.003906 420.855469 455.003906 C 461.996094 455.003906 487.46875 432.566406 487.46875 411.78125 Z M 487.46875 411.78125 " fill-opacity="1" fill-rule="nonzero"/><g clip-path="url(#15562b3251)"><path fill="#ffffff" d="M 774.066406 264.335938 C 759.054688 264.335938 746.8125 275.339844 746.8125 288.859375 C 746.8125 302.375 759.03125 313.335938 774.066406 313.335938 C 789.097656 313.335938 800.722656 302.589844 800.722656 288.859375 C 800.722656 275.125 789.011719 264.335938 774.066406 264.335938 Z M 774.066406 264.335938 " fill-opacity="1" fill-rule="nonzero"/></g><path fill="#ffffff" d="M 774.078125 326.632812 C 762.210938 326.632812 753.773438 323.753906 750.894531 322.613281 L 750.894531 451.757812 L 797.070312 451.757812 L 797.070312 322.613281 C 794.210938 323.753906 785.902344 326.632812 774.078125 326.632812 Z M 774.078125 326.632812 " fill-opacity="1" fill-rule="nonzero"/><path fill="#ffffff" d="M 1045.484375 455.003906 C 1084.738281 455.003906 1105.921875 414.210938 1105.921875 375.847656 C 1105.921875 337.484375 1086.996094 297.425781 1045.484375 297.425781 C 1024.078125 297.425781 1010.027344 306.429688 1001.21875 325.792969 L 999.457031 329.683594 L 1001.832031 300.671875 L 956.097656 300.671875 L 956.097656 482.40625 L 1000.167969 482.40625 L 1000.226562 429.148438 L 1001.636719 431.726562 C 1009.417969 446.105469 1026.230469 455.023438 1045.5 455.023438 Z M 995.898438 375.460938 C 995.898438 349.089844 1014.605469 339.742188 1030.601562 339.742188 C 1048.644531 339.742188 1066.863281 350.789062 1066.863281 375.460938 C 1066.863281 386.980469 1062.84375 396.417969 1055.222656 402.714844 C 1048.777344 408.042969 1040.058594 410.964844 1030.601562 410.964844 C 1014.578125 410.964844 995.898438 401.660156 995.898438 375.460938 Z M 995.898438 375.460938 " fill-opacity="1" fill-rule="nonzero"/></svg>